# xmcd
#
# Track frame offsets: 
#        150
#        8544
#        15616
#        26250
#        38574
#        48924
#        64371
#        78223
#        92047
#        105944
#        120261
#        134680
#        147980
#        159955
#        174915
#        186390
#        200857
#        216220
#
# Disc length: 3062 seconds
#
# Revision: 1
# Processed by: cddbd v1.5.1PL2 Copyright (c) Steve Scherf et al.
# Submitted via: ExactAudioCopy v0.95a5
#
DISCID=e40bf412
DTITLE=Frank Sinatra - Day by Day
DYEAR=1900
DGENRE=
TTITLE0=Somebody loves me
TTITLE1=Exactly like you
TTITLE2=Personality
TTITLE3=Tea for two
TTITLE4=Make believe
TTITLE5=The night we called it a day
TTITLE6=Where is my bess
TTITLE7=You'll never know
TTITLE8=Dream when you're feeling blue
TTITLE9=Put your dreams away
TTITLE10=Day by day
TTITLE11=Oh! What seemed to be
TTITLE12=Five minutes more
TTITLE13=The things we did last summer
TTITLE14=The coffee song
TTITLE15=Time after time
TTITLE16=Mam'selle
TTITLE17=Fools rush In
EXTD=
EXTT0=
EXTT1=
EXTT2=
EXTT3=
EXTT4=
EXTT5=
EXTT6=
EXTT7=
EXTT8=
EXTT9=
EXTT10=
EXTT11=
EXTT12=
EXTT13=
EXTT14=
EXTT15=
EXTT16=
EXTT17=
PLAYORDER=
